<?xml version="1.0" encoding="utf-8"?>
<!-- Generator: Adobe Illustrator 24.2.3, SVG Export Plug-In . SVG Version: 6.00 Build 0)  -->
<svg version="1.1" id="Camada_1" xmlns="http://www.w3.org/2000/svg" xmlns:xlink="http://www.w3.org/1999/xlink" x="0px" y="0px"
	 viewBox="0 0 757 810" style="enable-background:new 0 0 757 810;" xml:space="preserve">
<style type="text/css">
	.st0{fill:#E41C18;}
	.st1{display:none;}
	.st2{display:inline;}
	.st3{fill:#010202;}
	.st4{fill:#F6E81D;}
	.st5{fill:#174C23;}
</style>
<g id="Logo">
	<g>
		<path class="st0" d="M488.2,372.1c-10.4,0-20.4,0-30.4,0c-31.6,0-63.2,0-94.8,0.1c-3.7,0-5.2-1.1-6.6-4.7
			c-8.7-22.3-17.7-44.4-26.6-66.5c-3.6-9-7.2-18-10.8-27c-0.3-0.9-0.2-2-0.3-3.2c95.9,0,191.4,0,287.6,0c0,103,0,206.1,0,309.3
			c-149.2,0-298.5,0-449.1,0c4.3-4.5,7.9-8.3,11.7-12.1c17.4-17.5,34.9-34.9,52.3-52.3c15.3-15.3,30.6-30.7,46.1-46
			c1.1-1.1,3.1-1.9,4.6-1.9c19.6,0,39.3,0.2,58.9,0.3c50.4,0,100.7,0,151.1,0c6.2,0,6.6-0.4,6.6-6.4c0-28.2,0-56.3,0-84.5
			C488.5,375.7,488.4,374.1,488.2,372.1z"/>
		<path class="st0" d="M251,137.3c0,3.4,0,6.2,0,8.9c0,25.6,0,51.1-0.1,76.7c0,1.9-0.9,4.4-2.2,5.7
			c-35.5,35.7-71.2,71.3-106.8,106.9c-1.7,1.7-3.5,3.4-6.1,5.9c0-103.3,0-205.3,0-307.8c153.8,0,307.6,0,462.1,0
			c-1.5,3.4-2.6,6.9-4.3,10C583.2,63.4,572.6,83,562,102.7c-5.6,10.5-11.3,21-16.7,31.7c-1.4,2.7-3.2,2.9-5.7,2.9
			c-94.1,0-188.2,0-282.3,0C255.5,137.3,253.6,137.3,251,137.3z"/>
		<path class="st0" d="M251,270.1c0,1.3,0,2.5,0,3.8c0,55.2,0,110.4-0.1,165.7c0,2.2-1.1,4.9-2.6,6.5
			c-36.1,36.3-72.4,72.5-108.6,108.8c-1,1-2.1,2-4.3,2.7c0-5.6,0-11.2,0-16.8c0-27.5,0-55,0-82.4c0-24-0.1-47.9,0-71.9
			c0-1.5,1.2-3.2,2.4-4.4c28-28.1,56.1-56.1,84.1-84.3c9.3-9.4,18.5-18.9,27.8-28.3C250.2,269.6,250.6,269.9,251,270.1z"/>
		<path class="st0" d="M214.6,696.2c0,10.3,0,20.5,0,30.8c0,10.3,0,20.7,0,31.3c-4.7,0-9.2,0-14,0c0-32.1,0-64.2,0-96.6
			c6.7,0,13.3,0,20.3,0c4.1,19.9,8.2,39.9,12.3,59.9c0.3,0,0.6,0,0.9,0c3.9-20,7.8-39.9,11.8-60c7,0,13.8,0,20.8,0
			c0,32.3,0,64.4,0,96.8c-4.7,0-9.2,0-14.3,0c0-20.7,0-41.4,0-62.1c-0.4,0-0.8-0.1-1.1-0.1c-4.3,20.7-8.5,41.3-12.8,62.2
			c-3.3,0-6.5,0-10.1,0c-4.3-20.7-8.5-41.5-12.8-62.3C215.3,696.1,215,696.2,214.6,696.2z"/>
		<path class="st0" d="M70.2,691.2c-4.9,0-9.4,0-14.2,0c-0.2-3.2-0.2-6.1-0.5-9c-0.5-5.1-3.5-7.7-8.4-7.9c-5.1-0.2-8.9,2.2-9,7.1
			c-0.3,19.2-0.3,38.4,0,57.5c0.1,4.9,4,7.2,9.1,7c4.7-0.2,7.9-2.8,8.1-7.6c0.4-6.3,0.1-12.6,0.1-19.2c-2.9-0.1-5.5-0.3-8.7-0.4
			c0-3.9-0.1-7.8,0.1-11.5c0-0.7,1.2-1.8,1.9-1.9c7-0.1,14.1-0.1,21.3-0.1c0,11.9,0.6,23.3-0.2,34.6c-0.9,12.8-11.2,20.4-25.3,19.8
			c-12.2-0.5-21.1-9.4-21.2-21.7c-0.2-18.6-0.2-37.2,0-55.8c0.2-12.9,9.7-21.5,23.1-21.6c13.5,0,23,8.5,23.5,21.3
			C70.4,684.8,70.2,687.9,70.2,691.2z"/>
		<path class="st0" d="M124.8,661.7c6.8,0,13.1,0,19.6,0c5.3,32.3,10.7,64.4,16,96.8c-4.9,0-9.6,0-14.7,0
			c-1.1-6.9-2.2-13.8-3.3-20.8c-5.5,0-10.6,0-16,0c-1.1,7-2.2,13.8-3.3,20.8c-4.8,0-9.5,0-14.5,0C114.1,726.2,119.4,694,124.8,661.7
			z M140.5,723.1c-1.9-13-3.8-25.6-5.6-38.3c-0.3,0-0.6,0-0.9,0c-1.8,12.6-3.7,25.3-5.6,38.2C132.6,723.1,136.2,723.1,140.5,723.1z"
			/>
		<path class="st0" d="M703.5,661.6c5,0,9.7,0,14.9,0c-0.6,1.6-1,3-1.5,4.3c-5,13.1-10.2,26.1-15,39.2c-0.8,2.3-0.9,5.5-0.1,7.8
			c5,13.8,10.4,27.5,15.7,41.3c0.5,1.3,1,2.7,1.5,4.3c-5.3,0-10.1,0-15.5,0c-4-10.8-8.1-21.8-12.6-33.8c-4.2,12-8.1,22.9-11.9,33.8
			c-4.9,0-9.6,0-14.9,0c0.6-1.7,1.1-3.1,1.7-4.6c5.3-13.8,10.5-27.5,15.9-41.2c1.2-3.1,1.2-5.8,0-8.9c-4.9-12.3-9.6-24.7-14.4-37.1
			c-0.6-1.6-1.1-3.3-1.8-5.4c4.8,0,9.2-0.2,13.5,0.1c1.1,0.1,2.5,1.7,3,2.9c3,7.5,5.7,15.2,8.6,22.7c0.5,1.3,1.1,2.6,2.1,5.1
			C696.5,681.3,700,671.5,703.5,661.6z"/>
		<path class="st0" d="M325.9,702.2c7.2,0,14,0,21.1,0c0,4.6,0,8.9,0,13.7c-7,0-13.9,0-21.1,0c0,9.8,0,19.2,0,29c9,0,17.8,0,26.8,0
			c0,4.7,0,9,0,13.5c-13.7,0-27.3,0-41.3,0c0-32.3,0-64.4,0-96.7c13.8,0,27.3,0,41.2,0c0,4.3,0,8.7,0,13.5c-8.8,0-17.6,0-26.7,0
			C325.9,684.3,325.9,693,325.9,702.2z"/>
		<path class="st0" d="M449.6,661.7c13.5,0,26.8,0,40.4,0c0,4.3,0,8.6,0,13.4c-8.5,0-17,0-25.8,0c0,9.5,0,18.6,0,28.3
			c6.6,0,13.3,0,20.4,0c0,4.8,0,9,0,13.8c-6.7,0-13.4,0-20.6,0c0,14.1,0,27.6,0,41.3c-5,0-9.5,0-14.3,0
			C449.6,726.1,449.6,694,449.6,661.7z"/>
		<path class="st0" d="M544.4,744.9c9.2,0,17.7,0,26.3,0c0,4.7,0,8.9,0,13.5c-13.4,0-26.8,0-40.4,0c0-32.2,0-64.3,0-96.7
			c4.7,0,9.2,0,14.1,0C544.4,689.3,544.4,716.7,544.4,744.9z"/>
		<path class="st0" d="M624.7,758.5c-4.6,0-9.1,0-13.9,0c0-32.2,0-64.3,0-96.7c4.6,0,9.1,0,13.9,0
			C624.7,693.8,624.7,726,624.7,758.5z"/>
	</g>
</g>
<g id="Variação_1" class="st1">
	<g class="st2">
		<path class="st3" d="M1201.9,136.6c-3.2,0-6.2,0-9.2,0c-9.6,0-19.2,0-28.8,0c-1.1,0-1.6-0.4-2-1.4c-2.6-6.8-5.4-13.5-8.1-20.2
			c-1.1-2.7-2.2-5.5-3.3-8.2c-0.1-0.3-0.1-0.6-0.1-1c29.2,0,58.3,0,87.5,0c0,31.4,0,62.7,0,94.1c-45.4,0-90.8,0-136.7,0
			c1.3-1.4,2.4-2.5,3.6-3.7c5.3-5.3,10.6-10.6,15.9-15.9c4.7-4.7,9.3-9.4,14-14c0.3-0.3,0.9-0.6,1.4-0.6c6,0,11.9,0.1,17.9,0.1
			c15.3,0,30.7,0,46,0c1.9,0,2-0.1,2-2c0-8.6,0-17.1,0-25.7C1202,137.7,1202,137.3,1201.9,136.6z"/>
		<path class="st3" d="M1129.8,65.2c0,1,0,1.9,0,2.7c0,7.8,0,15.6,0,23.3c0,0.6-0.3,1.3-0.7,1.7c-10.8,10.9-21.7,21.7-32.5,32.5
			c-0.5,0.5-1.1,1-1.9,1.8c0-31.4,0-62.5,0-93.7c46.8,0,93.6,0,140.6,0c-0.4,1.1-0.8,2.1-1.3,3.1c-3.2,6-6.4,12-9.6,18
			c-1.7,3.2-3.4,6.4-5.1,9.6c-0.4,0.8-1,0.9-1.7,0.9c-28.6,0-57.3,0-85.9,0C1131.1,65.2,1130.5,65.2,1129.8,65.2z"/>
		<path class="st3" d="M1129.8,105.6c0,0.4,0,0.8,0,1.2c0,16.8,0,33.6,0,50.4c0,0.7-0.3,1.5-0.8,2c-11,11.1-22,22.1-33,33.1
			c-0.3,0.3-0.6,0.6-1.3,0.8c0-1.7,0-3.4,0-5.1c0-8.4,0-16.7,0-25.1c0-7.3,0-14.6,0-21.9c0-0.5,0.4-1,0.7-1.3
			c8.5-8.6,17.1-17.1,25.6-25.6c2.8-2.9,5.6-5.8,8.4-8.6C1129.5,105.5,1129.6,105.5,1129.8,105.6z"/>
		<path class="st3" d="M1118.7,235.3c0,3.1,0,6.3,0,9.4c0,3.1,0,6.3,0,9.5c-1.4,0-2.8,0-4.3,0c0-9.8,0-19.5,0-29.4c2,0,4,0,6.2,0
			c1.2,6.1,2.5,12.1,3.7,18.2c0.1,0,0.2,0,0.3,0c1.2-6.1,2.4-12.1,3.6-18.2c2.1,0,4.2,0,6.3,0c0,9.8,0,19.6,0,29.5
			c-1.4,0-2.8,0-4.3,0c0-6.3,0-12.6,0-18.9c-0.1,0-0.2,0-0.3,0c-1.3,6.3-2.6,12.6-3.9,18.9c-1,0-2,0-3.1,0c-1.3-6.3-2.6-12.6-3.9-19
			C1118.9,235.3,1118.8,235.3,1118.7,235.3z"/>
		<path class="st3" d="M1074.7,233.7c-1.5,0-2.8,0-4.3,0c-0.1-1-0.1-1.9-0.2-2.7c-0.2-1.5-1.1-2.4-2.6-2.4c-1.5,0-2.7,0.7-2.7,2.2
			c-0.1,5.8-0.1,11.7,0,17.5c0,1.5,1.2,2.2,2.8,2.1c1.4-0.1,2.4-0.9,2.5-2.3c0.1-1.9,0-3.8,0-5.8c-0.9,0-1.7-0.1-2.6-0.1
			c0-1.2,0-2.4,0-3.5c0-0.2,0.4-0.6,0.6-0.6c2.1,0,4.3,0,6.5,0c0,3.6,0.2,7.1-0.1,10.5c-0.3,3.9-3.4,6.2-7.7,6
			c-3.7-0.2-6.4-2.9-6.5-6.6c-0.1-5.7-0.1-11.3,0-17c0.1-3.9,3-6.5,7-6.6c4.1,0,7,2.6,7.2,6.5
			C1074.8,231.8,1074.7,232.7,1074.7,233.7z"/>
		<path class="st3" d="M1091.3,224.8c2.1,0,4,0,6,0c1.6,9.8,3.2,19.6,4.9,29.5c-1.5,0-2.9,0-4.5,0c-0.3-2.1-0.7-4.2-1-6.3
			c-1.7,0-3.2,0-4.8,0c-0.3,2.1-0.7,4.2-1,6.3c-1.5,0-2.9,0-4.4,0C1088.1,244.4,1089.7,234.6,1091.3,224.8z M1096.1,243.5
			c-0.6-4-1.2-7.8-1.7-11.6c-0.1,0-0.2,0-0.3,0c-0.6,3.8-1.1,7.7-1.7,11.6C1093.7,243.5,1094.8,243.5,1096.1,243.5z"/>
		<path class="st3" d="M1267.4,224.7c1.5,0,2.9,0,4.5,0c-0.2,0.5-0.3,0.9-0.5,1.3c-1.5,4-3.1,7.9-4.6,11.9c-0.3,0.7-0.3,1.7,0,2.4
			c1.5,4.2,3.2,8.4,4.8,12.6c0.2,0.4,0.3,0.8,0.5,1.3c-1.6,0-3.1,0-4.7,0c-1.2-3.3-2.5-6.6-3.8-10.3c-1.3,3.6-2.5,7-3.6,10.3
			c-1.5,0-2.9,0-4.6,0c0.2-0.5,0.3-1,0.5-1.4c1.6-4.2,3.2-8.4,4.8-12.5c0.4-1,0.4-1.8,0-2.7c-1.5-3.7-2.9-7.5-4.4-11.3
			c-0.2-0.5-0.3-1-0.6-1.6c1.5,0,2.8-0.1,4.1,0c0.3,0,0.8,0.5,0.9,0.9c0.9,2.3,1.8,4.6,2.6,6.9c0.2,0.4,0.3,0.8,0.6,1.5
			C1265.3,230.8,1266.4,227.7,1267.4,224.7z"/>
		<path class="st3" d="M1152.5,237.1c2.2,0,4.3,0,6.4,0c0,1.4,0,2.7,0,4.2c-2.1,0-4.2,0-6.4,0c0,3,0,5.8,0,8.8c2.7,0,5.4,0,8.1,0
			c0,1.4,0,2.7,0,4.1c-4.2,0-8.3,0-12.6,0c0-9.8,0-19.6,0-29.4c4.2,0,8.3,0,12.5,0c0,1.3,0,2.6,0,4.1c-2.7,0-5.4,0-8.1,0
			C1152.5,231.7,1152.5,234.3,1152.5,237.1z"/>
		<path class="st3" d="M1190.2,224.8c4.1,0,8.2,0,12.3,0c0,1.3,0,2.6,0,4.1c-2.6,0-5.2,0-7.9,0c0,2.9,0,5.7,0,8.6c2,0,4.1,0,6.2,0
			c0,1.5,0,2.7,0,4.2c-2.1,0-4.1,0-6.3,0c0,4.3,0,8.4,0,12.6c-1.5,0-2.9,0-4.3,0C1190.2,244.4,1190.2,234.6,1190.2,224.8z"/>
		<path class="st3" d="M1219,250.1c2.8,0,5.4,0,8,0c0,1.4,0,2.7,0,4.1c-4.1,0-8.1,0-12.3,0c0-9.8,0-19.6,0-29.4c1.4,0,2.8,0,4.3,0
			C1219,233.2,1219,241.5,1219,250.1z"/>
		<path class="st3" d="M1243.5,254.2c-1.4,0-2.8,0-4.2,0c0-9.8,0-19.6,0-29.4c1.4,0,2.8,0,4.2,0
			C1243.5,234.6,1243.5,244.4,1243.5,254.2z"/>
	</g>
</g>
<g id="Variação_2" class="st1">
	<g class="st2">
		<path class="st4" d="M1200.6,388.5c-3.2,0-6.2,0-9.2,0c-9.6,0-19.2,0-28.8,0c-1.1,0-1.6-0.3-2-1.4c-2.6-6.8-5.4-13.5-8.1-20.2
			c-1.1-2.7-2.2-5.5-3.3-8.2c-0.1-0.3-0.1-0.6-0.1-1c29.2,0,58.3,0,87.5,0c0,31.4,0,62.7,0,94.1c-45.4,0-90.8,0-136.7,0
			c1.3-1.4,2.4-2.5,3.6-3.7c5.3-5.3,10.6-10.6,15.9-15.9c4.7-4.7,9.3-9.3,14-14c0.3-0.3,0.9-0.6,1.4-0.6c6,0,11.9,0.1,17.9,0.1
			c15.3,0,30.7,0,46,0c1.9,0,2-0.1,2-2c0-8.6,0-17.1,0-25.7C1200.7,389.7,1200.7,389.2,1200.6,388.5z"/>
		<path class="st4" d="M1128.4,317.1c0,1,0,1.9,0,2.7c0,7.8,0,15.6,0,23.3c0,0.6-0.3,1.3-0.7,1.7c-10.8,10.9-21.7,21.7-32.5,32.5
			c-0.5,0.5-1.1,1-1.9,1.8c0-31.4,0-62.5,0-93.7c46.8,0,93.6,0,140.6,0c-0.4,1-0.8,2.1-1.3,3c-3.2,6-6.4,12-9.6,18
			c-1.7,3.2-3.4,6.4-5.1,9.6c-0.4,0.8-1,0.9-1.7,0.9c-28.6,0-57.3,0-85.9,0C1129.8,317.1,1129.2,317.1,1128.4,317.1z"/>
		<path class="st4" d="M1128.4,357.5c0,0.4,0,0.8,0,1.2c0,16.8,0,33.6,0,50.4c0,0.7-0.3,1.5-0.8,2c-11,11.1-22,22.1-33,33.1
			c-0.3,0.3-0.6,0.6-1.3,0.8c0-1.7,0-3.4,0-5.1c0-8.4,0-16.7,0-25.1c0-7.3,0-14.6,0-21.9c0-0.5,0.4-1,0.7-1.3
			c8.5-8.6,17.1-17.1,25.6-25.6c2.8-2.8,5.6-5.8,8.4-8.6C1128.2,357.4,1128.3,357.4,1128.4,357.5z"/>
		<path class="st4" d="M1117.4,487.2c0,3.1,0,6.3,0,9.4c0,3.1,0,6.3,0,9.5c-1.4,0-2.8,0-4.3,0c0-9.8,0-19.5,0-29.4c2,0,4,0,6.2,0
			c1.2,6.1,2.5,12.1,3.7,18.2c0.1,0,0.2,0,0.3,0c1.2-6.1,2.4-12.2,3.6-18.2c2.1,0,4.2,0,6.3,0c0,9.8,0,19.6,0,29.5
			c-1.4,0-2.8,0-4.3,0c0-6.3,0-12.6,0-18.9c-0.1,0-0.2,0-0.3,0c-1.3,6.3-2.6,12.6-3.9,18.9c-1,0-2,0-3.1,0c-1.3-6.3-2.6-12.6-3.9-19
			C1117.6,487.2,1117.5,487.2,1117.4,487.2z"/>
		<path class="st4" d="M1073.4,485.7c-1.5,0-2.8,0-4.3,0c-0.1-1-0.1-1.9-0.2-2.7c-0.2-1.5-1.1-2.4-2.6-2.4c-1.5,0-2.7,0.7-2.7,2.2
			c-0.1,5.8-0.1,11.7,0,17.5c0,1.5,1.2,2.2,2.8,2.1c1.4-0.1,2.4-0.8,2.5-2.3c0.1-1.9,0-3.8,0-5.8c-0.9,0-1.7-0.1-2.6-0.1
			c0-1.2,0-2.4,0-3.5c0-0.2,0.4-0.6,0.6-0.6c2.1,0,4.3,0,6.5,0c0,3.6,0.2,7.1-0.1,10.5c-0.3,3.9-3.4,6.2-7.7,6
			c-3.7-0.2-6.4-2.9-6.5-6.6c-0.1-5.7-0.1-11.3,0-17c0.1-3.9,3-6.5,7-6.6c4.1,0,7,2.6,7.2,6.5
			C1073.4,483.7,1073.4,484.7,1073.4,485.7z"/>
		<path class="st4" d="M1090,476.7c2.1,0,4,0,6,0c1.6,9.8,3.2,19.6,4.9,29.5c-1.5,0-2.9,0-4.5,0c-0.3-2.1-0.7-4.2-1-6.3
			c-1.7,0-3.2,0-4.8,0c-0.3,2.1-0.7,4.2-1,6.3c-1.5,0-2.9,0-4.4,0C1086.8,496.3,1088.4,486.5,1090,476.7z M1094.8,495.4
			c-0.6-4-1.2-7.8-1.7-11.6c-0.1,0-0.2,0-0.3,0c-0.6,3.8-1.1,7.7-1.7,11.6C1092.4,495.4,1093.5,495.4,1094.8,495.4z"/>
		<path class="st4" d="M1266.1,476.6c1.5,0,2.9,0,4.5,0c-0.2,0.5-0.3,0.9-0.5,1.3c-1.5,4-3.1,7.9-4.6,11.9c-0.3,0.7-0.3,1.7,0,2.4
			c1.5,4.2,3.2,8.4,4.8,12.6c0.2,0.4,0.3,0.8,0.5,1.3c-1.6,0-3.1,0-4.7,0c-1.2-3.3-2.5-6.6-3.8-10.3c-1.3,3.6-2.5,7-3.6,10.3
			c-1.5,0-2.9,0-4.6,0c0.2-0.5,0.3-1,0.5-1.4c1.6-4.2,3.2-8.4,4.8-12.5c0.4-1,0.4-1.8,0-2.7c-1.5-3.7-2.9-7.5-4.4-11.3
			c-0.2-0.5-0.3-1-0.6-1.6c1.5,0,2.8-0.1,4.1,0c0.3,0,0.8,0.5,0.9,0.9c0.9,2.3,1.8,4.6,2.6,6.9c0.2,0.4,0.3,0.8,0.6,1.5
			C1264,482.7,1265.1,479.7,1266.1,476.6z"/>
		<path class="st4" d="M1151.2,489c2.2,0,4.3,0,6.4,0c0,1.4,0,2.7,0,4.2c-2.1,0-4.2,0-6.4,0c0,3,0,5.8,0,8.8c2.7,0,5.4,0,8.1,0
			c0,1.4,0,2.7,0,4.1c-4.2,0-8.3,0-12.6,0c0-9.8,0-19.6,0-29.4c4.2,0,8.3,0,12.5,0c0,1.3,0,2.6,0,4.1c-2.7,0-5.4,0-8.1,0
			C1151.2,483.6,1151.2,486.2,1151.2,489z"/>
		<path class="st4" d="M1188.9,476.7c4.1,0,8.2,0,12.3,0c0,1.3,0,2.6,0,4.1c-2.6,0-5.2,0-7.9,0c0,2.9,0,5.7,0,8.6c2,0,4.1,0,6.2,0
			c0,1.5,0,2.7,0,4.2c-2.1,0-4.1,0-6.3,0c0,4.3,0,8.4,0,12.6c-1.5,0-2.9,0-4.3,0C1188.9,496.3,1188.9,486.5,1188.9,476.7z"/>
		<path class="st4" d="M1217.7,502c2.8,0,5.4,0,8,0c0,1.4,0,2.7,0,4.1c-4.1,0-8.1,0-12.3,0c0-9.8,0-19.6,0-29.4c1.4,0,2.8,0,4.3,0
			C1217.7,485.1,1217.7,493.4,1217.7,502z"/>
		<path class="st4" d="M1242.2,506.1c-1.4,0-2.8,0-4.2,0c0-9.8,0-19.6,0-29.4c1.4,0,2.8,0,4.2,0
			C1242.2,486.5,1242.2,496.3,1242.2,506.1z"/>
	</g>
</g>
<g id="Variação_3" class="st1">
	<g class="st2">
		<path class="st5" d="M1205.2,640.5c-3.2,0-6.2,0-9.2,0c-9.6,0-19.2,0-28.8,0c-1.1,0-1.6-0.3-2-1.4c-2.6-6.8-5.4-13.5-8.1-20.2
			c-1.1-2.7-2.2-5.5-3.3-8.2c-0.1-0.3-0.1-0.6-0.1-1c29.2,0,58.3,0,87.5,0c0,31.4,0,62.7,0,94.1c-45.4,0-90.8,0-136.7,0
			c1.3-1.4,2.4-2.5,3.6-3.7c5.3-5.3,10.6-10.6,15.9-15.9c4.7-4.7,9.3-9.3,14-14c0.3-0.3,0.9-0.6,1.4-0.6c6,0,11.9,0.1,17.9,0.1
			c15.3,0,30.7,0,46,0c1.9,0,2-0.1,2-2c0-8.6,0-17.1,0-25.7C1205.3,641.6,1205.2,641.1,1205.2,640.5z"/>
		<path class="st5" d="M1133,569c0,1,0,1.9,0,2.7c0,7.8,0,15.6,0,23.3c0,0.6-0.3,1.3-0.7,1.7c-10.8,10.9-21.7,21.7-32.5,32.5
			c-0.5,0.5-1.1,1-1.9,1.8c0-31.4,0-62.5,0-93.7c46.8,0,93.6,0,140.6,0c-0.4,1-0.8,2.1-1.3,3c-3.2,6-6.4,12-9.6,18
			c-1.7,3.2-3.4,6.4-5.1,9.7c-0.4,0.8-1,0.9-1.7,0.9c-28.6,0-57.3,0-85.9,0C1134.4,569,1133.8,569,1133,569z"/>
		<path class="st5" d="M1133,609.4c0,0.4,0,0.8,0,1.2c0,16.8,0,33.6,0,50.4c0,0.7-0.3,1.5-0.8,2c-11,11.1-22,22.1-33,33.1
			c-0.3,0.3-0.6,0.6-1.3,0.8c0-1.7,0-3.4,0-5.1c0-8.4,0-16.7,0-25.1c0-7.3,0-14.6,0-21.9c0-0.5,0.4-1,0.7-1.3
			c8.5-8.6,17.1-17.1,25.6-25.6c2.8-2.8,5.6-5.8,8.4-8.6C1132.7,609.3,1132.9,609.3,1133,609.4z"/>
		<path class="st5" d="M1121.9,739.1c0,3.1,0,6.3,0,9.4c0,3.1,0,6.3,0,9.5c-1.4,0-2.8,0-4.3,0c0-9.8,0-19.5,0-29.4c2,0,4,0,6.2,0
			c1.2,6.1,2.5,12.1,3.7,18.2c0.1,0,0.2,0,0.3,0c1.2-6.1,2.4-12.2,3.6-18.2c2.1,0,4.2,0,6.3,0c0,9.8,0,19.6,0,29.5
			c-1.4,0-2.8,0-4.3,0c0-6.3,0-12.6,0-18.9c-0.1,0-0.2,0-0.3,0c-1.3,6.3-2.6,12.6-3.9,18.9c-1,0-2,0-3.1,0c-1.3-6.3-2.6-12.6-3.9-19
			C1122.1,739.1,1122,739.1,1121.9,739.1z"/>
		<path class="st5" d="M1078,737.5c-1.5,0-2.8,0-4.3,0c-0.1-1-0.1-1.9-0.2-2.7c-0.2-1.5-1.1-2.4-2.6-2.4c-1.5,0-2.7,0.7-2.7,2.2
			c-0.1,5.8-0.1,11.7,0,17.5c0,1.5,1.2,2.2,2.8,2.1c1.4-0.1,2.4-0.8,2.5-2.3c0.1-1.9,0-3.8,0-5.8c-0.9,0-1.7-0.1-2.6-0.1
			c0-1.2,0-2.4,0-3.5c0-0.2,0.4-0.6,0.6-0.6c2.1,0,4.3,0,6.5,0c0,3.6,0.2,7.1-0.1,10.5c-0.3,3.9-3.4,6.2-7.7,6
			c-3.7-0.2-6.4-2.9-6.5-6.6c-0.1-5.7-0.1-11.3,0-17c0.1-3.9,3-6.5,7-6.6c4.1,0,7,2.6,7.2,6.5C1078,735.6,1078,736.5,1078,737.5z"/>
		<path class="st5" d="M1094.6,728.6c2.1,0,4,0,6,0c1.6,9.8,3.2,19.6,4.9,29.5c-1.5,0-2.9,0-4.5,0c-0.3-2.1-0.7-4.2-1-6.3
			c-1.7,0-3.2,0-4.8,0c-0.3,2.1-0.7,4.2-1,6.3c-1.5,0-2.9,0-4.4,0C1091.3,748.2,1093,738.4,1094.6,728.6z M1099.4,747.3
			c-0.6-4-1.2-7.8-1.7-11.6c-0.1,0-0.2,0-0.3,0c-0.6,3.8-1.1,7.7-1.7,11.6C1097,747.3,1098.1,747.3,1099.4,747.3z"/>
		<path class="st5" d="M1270.7,728.5c1.5,0,2.9,0,4.5,0c-0.2,0.5-0.3,0.9-0.5,1.3c-1.5,4-3.1,7.9-4.6,11.9c-0.3,0.7-0.3,1.7,0,2.4
			c1.5,4.2,3.2,8.4,4.8,12.6c0.2,0.4,0.3,0.8,0.5,1.3c-1.6,0-3.1,0-4.7,0c-1.2-3.3-2.5-6.6-3.8-10.3c-1.3,3.6-2.5,7-3.6,10.3
			c-1.5,0-2.9,0-4.6,0c0.2-0.5,0.3-1,0.5-1.4c1.6-4.2,3.2-8.4,4.8-12.5c0.4-1,0.4-1.8,0-2.7c-1.5-3.7-2.9-7.5-4.4-11.3
			c-0.2-0.5-0.3-1-0.6-1.6c1.5,0,2.8-0.1,4.1,0c0.3,0,0.8,0.5,0.9,0.9c0.9,2.3,1.8,4.6,2.6,6.9c0.2,0.4,0.3,0.8,0.6,1.5
			C1268.6,734.6,1269.6,731.5,1270.7,728.5z"/>
		<path class="st5" d="M1155.8,740.9c2.2,0,4.3,0,6.4,0c0,1.4,0,2.7,0,4.2c-2.1,0-4.2,0-6.4,0c0,3,0,5.8,0,8.8c2.7,0,5.4,0,8.1,0
			c0,1.4,0,2.7,0,4.1c-4.2,0-8.3,0-12.6,0c0-9.8,0-19.6,0-29.4c4.2,0,8.3,0,12.5,0c0,1.3,0,2.6,0,4.1c-2.7,0-5.4,0-8.1,0
			C1155.8,735.5,1155.8,738.1,1155.8,740.9z"/>
		<path class="st5" d="M1193.4,728.6c4.1,0,8.2,0,12.3,0c0,1.3,0,2.6,0,4.1c-2.6,0-5.2,0-7.9,0c0,2.9,0,5.7,0,8.6c2,0,4.1,0,6.2,0
			c0,1.5,0,2.7,0,4.2c-2.1,0-4.1,0-6.3,0c0,4.3,0,8.4,0,12.6c-1.5,0-2.9,0-4.3,0C1193.4,748.2,1193.4,738.4,1193.4,728.6z"/>
		<path class="st5" d="M1222.3,753.9c2.8,0,5.4,0,8,0c0,1.4,0,2.7,0,4.1c-4.1,0-8.1,0-12.3,0c0-9.8,0-19.6,0-29.4c1.4,0,2.8,0,4.3,0
			C1222.3,737,1222.3,745.3,1222.3,753.9z"/>
		<path class="st5" d="M1246.7,758c-1.4,0-2.8,0-4.2,0c0-9.8,0-19.6,0-29.4c1.4,0,2.8,0,4.2,0C1246.7,738.4,1246.7,748.2,1246.7,758
			z"/>
	</g>
</g>
</svg>
